<svg width="104" height="49" viewBox="0 0 104 49" fill="none" xmlns="http://www.w3.org/2000/svg">
<path d="M1.47656 37V12.3906H5.41406V37H1.47656ZM7.20703 25.8906V22.0586H9.5625C11.2734 22.0586 12.1992 21.2266 12.3398 19.5625C12.3398 19.4219 12.3398 19.2812 12.3398 19.1406C12.1758 17.2891 11.25 16.3164 9.5625 16.2227H7.20703V12.3906H9.87891C14.1445 12.4609 16.2891 14.6875 16.3125 19.0703C16.3125 22.4688 15.2344 24.5898 13.0781 25.4336C12.1875 25.7383 11.1211 25.8906 9.87891 25.8906C9.83203 25.8906 8.94141 25.8906 7.20703 25.8906ZM18.2461 30.1445V18.5781C18.2461 17.3359 18.7734 16.0703 19.8281 14.7812C21.2344 13.0938 23.0156 12.2383 25.1719 12.2148V16.1172C23.9531 16.1406 23.0391 16.7969 22.4297 18.0859C22.2422 18.5078 22.1484 18.8594 22.1484 19.1406V30.1445C22.1484 31.4102 22.8047 32.3477 24.1172 32.957C24.5156 33.1445 24.8555 33.2383 25.1367 33.2383V37.1758C23.8008 37.1758 22.4648 36.6953 21.1289 35.7344C19.2305 34.3281 18.2695 32.4648 18.2461 30.1445ZM27.0703 37.1758V33.2383C27.6797 33.2383 28.3125 32.957 28.9688 32.3945C29.6719 31.7617 30.0352 31.0117 30.0586 30.1445V19.1406C30.0586 18.4375 29.7539 17.7578 29.1445 17.1016C28.5586 16.4688 27.8672 16.1406 27.0703 16.1172V12.2148C29.4375 12.2148 31.3359 13.2344 32.7656 15.2734C33.5859 16.4453 33.9961 17.5469 33.9961 18.5781V30.1445C33.9961 32.7461 32.8359 34.7383 30.5156 36.1211C29.2969 36.8242 28.1484 37.1758 27.0703 37.1758ZM36.8086 37V12.3906H40.7461V37H36.8086ZM42.5391 26.6289V23.1133H44.5078C46.5469 23.1133 47.6719 22.1406 47.8828 20.1953C47.9062 19.9844 47.918 19.7852 47.918 19.5977C47.918 17.6289 47.0273 16.4688 45.2461 16.1172C44.918 16.0703 44.5781 16.0469 44.2266 16.0469H42.5391V12.3906H44.6836C47.8008 12.4609 49.8984 13.6211 50.9766 15.8711C51.4219 16.8086 51.6445 17.8867 51.6445 19.1055C51.6211 21.707 50.8242 23.5938 49.2539 24.7656C50.4727 25.4688 51.2461 26.7227 51.5742 28.5273C51.6211 28.832 51.6562 29.1133 51.6797 29.3711L52.2773 37H48.6211L48.0938 30.7422C47.9062 28.7734 47.3789 27.5312 46.5117 27.0156C45.9961 26.7578 45.3516 26.6289 44.5781 26.6289H42.5391ZM53.6836 16.2227V12.3906H68.9062V16.2227H63.2812V37H59.3438V16.2227H53.6836ZM70.9453 37V12.3906H83.7422V16.2578H74.8828V22.7969H80.4375V26.7344H74.8828V33.0977H83.7422V37H70.9453ZM86.5898 37V18.6484H86.8711L90.5273 24.5195V37H86.5898ZM86.5898 14.9219V12.3906H89.8594L102.234 32.2539V37H100.336L86.5898 14.9219ZM98.2969 22.6562V12.3906H102.234V28.5273H101.953L98.2969 22.6562Z" fill="white"/>
</svg>
